<?xml version="1.0" encoding="UTF-8" standalone="no"?>
<!DOCTYPE svg PUBLIC "-//W3C//DTD SVG 1.1//EN"
 "http://www.w3.org/Graphics/SVG/1.1/DTD/svg11.dtd">
<!-- Generated by graphviz version 2.44.1 (20200629.0846)
 -->
<!-- Title: g Pages: 1 -->
<svg width="1776pt" height="1354pt"
 viewBox="0.00 0.00 1776.00 1354.40" xmlns="http://www.w3.org/2000/svg" xmlns:xlink="http://www.w3.org/1999/xlink">
<g id="graph0" class="graph" transform="scale(1 1) rotate(0) translate(4 1350.4)">
<title>g</title>
<polygon fill="white" stroke="transparent" points="-4,4 -4,-1350.4 1772,-1350.4 1772,4 -4,4"/>
<g id="clust1" class="cluster">
<title>cluster_1245635613</title>
<polygon fill="#ececec" stroke="black" points="8,-8 8,-1338.4 1760,-1338.4 1760,-8 8,-8"/>
<text text-anchor="middle" x="33.89" y="-1321.8" font-family="Times New Roman,serif" font-size="14.00">github</text>
</g>
<g id="clust2" class="cluster">
<title>cluster_9296634</title>
<polygon fill="#d8d8d8" stroke="black" points="16,-16 16,-1305.6 1752,-1305.6 1752,-16 16,-16"/>
<text text-anchor="middle" x="57.04" y="-1289" font-family="Times New Roman,serif" font-size="14.00">rutujchheda</text>
</g>
<!-- ClarendonConverter1402912574 -->
<g id="node1" class="node">
<title>ClarendonConverter1402912574</title>
<polygon fill="#ffffff" stroke="transparent" points="328,-182 24,-182 24,-108 328,-108 328,-182"/>
<text text-anchor="start" x="29" y="-164.4" font-family="Times New Roman,serif" font-size="14.00">(C)ClarendonConverter</text>
<text text-anchor="start" x="29" y="-140.4" font-family="Times New Roman,serif" font-size="14.00">&#45; applyClarendonFilter(original: RGB): RGB</text>
<text text-anchor="start" x="28.58" y="-116.4" font-family="Times New Roman,serif" font-size="14.00">+ convert(image: Photo, imageName: String): String</text>
<polygon fill="black" stroke="black" points="24,-157 24,-157 328,-157 328,-157 24,-157"/>
<polygon fill="none" stroke="black" points="24,-108 24,-182 328,-182 328,-108 24,-108"/>
</g>
<!-- ConcurrentConverter604903011 -->
<g id="node2" class="node">
<title>ConcurrentConverter604903011</title>
<polygon fill="#ffffff" stroke="transparent" points="764,-505.6 524,-505.6 524,-335.6 764,-335.6 764,-505.6"/>
<text text-anchor="start" x="529" y="-488" font-family="Times New Roman,serif" font-size="14.00">(C)ConcurrentConverter</text>
<text text-anchor="start" x="528.73" y="-464" font-family="Times New Roman,serif" font-size="14.00">&#45; &#160;&#160;convertedImageLocation: String [0..1]</text>
<text text-anchor="start" x="529" y="-440" font-family="Times New Roman,serif" font-size="14.00">&#45; &#160;&#160;converter: PhotoConverter [0..1]</text>
<text text-anchor="start" x="529" y="-416" font-family="Times New Roman,serif" font-size="14.00">&#45; &#160;&#160;fileName: String [0..1]</text>
<text text-anchor="start" x="529" y="-392" font-family="Times New Roman,serif" font-size="14.00">&#45; &#160;&#160;inputImage: Photo [0..1]</text>
<text text-anchor="start" x="529" y="-368" font-family="Times New Roman,serif" font-size="14.00">+ getConvertedImageLocation(): String</text>
<text text-anchor="start" x="529" y="-344" font-family="Times New Roman,serif" font-size="14.00">+ run()</text>
<polygon fill="black" stroke="black" points="524,-480.6 524,-480.6 764,-480.6 764,-480.6 524,-480.6"/>
<polygon fill="black" stroke="black" points="524,-384.6 524,-384.6 764,-384.6 764,-384.6 524,-384.6"/>
<polygon fill="none" stroke="black" points="524,-335.6 524,-505.6 764,-505.6 764,-335.6 524,-335.6"/>
</g>
<!-- ConcurrentConverter604903011&#45;&gt;ClarendonConverter1402912574 -->
<g id="edge1" class="edge">
<title>ConcurrentConverter604903011&#45;&gt;ClarendonConverter1402912574</title>
<path fill="none" stroke="black" d="M523.99,-359.55C437.88,-316.47 337,-266 337,-266 337,-266 271.73,-217.35 224.31,-182"/>
</g>
<!-- GreyscaleConverter1402912574 -->
<g id="node8" class="node">
<title>GreyscaleConverter1402912574</title>
<polygon fill="#ffffff" stroke="transparent" points="650,-170 346,-170 346,-120 650,-120 650,-170"/>
<text text-anchor="start" x="351" y="-152.4" font-family="Times New Roman,serif" font-size="14.00">(C)GreyscaleConverter</text>
<text text-anchor="start" x="350.58" y="-128.4" font-family="Times New Roman,serif" font-size="14.00">+ convert(image: Photo, imageName: String): String</text>
<polygon fill="black" stroke="black" points="346,-145 346,-145 650,-145 650,-145 346,-145"/>
<polygon fill="none" stroke="black" points="346,-120 346,-170 650,-170 650,-120 346,-120"/>
</g>
<!-- ConcurrentConverter604903011&#45;&gt;GreyscaleConverter1402912574 -->
<g id="edge2" class="edge">
<title>ConcurrentConverter604903011&#45;&gt;GreyscaleConverter1402912574</title>
<path fill="none" stroke="black" d="M599,-335.28C568.59,-278.28 530.53,-206.96 510.96,-170.28"/>
</g>
<!-- InversionConverter1402912574 -->
<g id="node9" class="node">
<title>InversionConverter1402912574</title>
<polygon fill="#ffffff" stroke="transparent" points="972,-170 668,-170 668,-120 972,-120 972,-170"/>
<text text-anchor="start" x="673" y="-152.4" font-family="Times New Roman,serif" font-size="14.00">(C)InversionConverter</text>
<text text-anchor="start" x="672.58" y="-128.4" font-family="Times New Roman,serif" font-size="14.00">+ convert(image: Photo, imageName: String): String</text>
<polygon fill="black" stroke="black" points="668,-145 668,-145 972,-145 972,-145 668,-145"/>
<polygon fill="none" stroke="black" points="668,-120 668,-170 972,-170 972,-120 668,-120"/>
</g>
<!-- ConcurrentConverter604903011&#45;&gt;InversionConverter1402912574 -->
<g id="edge3" class="edge">
<title>ConcurrentConverter604903011&#45;&gt;InversionConverter1402912574</title>
<path fill="none" stroke="black" d="M698.24,-335.28C734.91,-278.28 780.78,-206.96 804.38,-170.28"/>
</g>
<!-- Photo177902411 -->
<g id="node11" class="node">
<title>Photo177902411</title>
<polygon fill="#ffffff" stroke="transparent" points="1156,-266 990,-266 990,-24 1156,-24 1156,-266"/>
<text text-anchor="start" x="995" y="-248.4" font-family="Times New Roman,serif" font-size="14.00">(C)Photo</text>
<text text-anchor="start" x="995" y="-224.4" font-family="Times New Roman,serif" font-size="14.00">&#45; &#160;&#160;height: int [1]</text>
<text text-anchor="start" x="994.92" y="-200.4" font-family="Times New Roman,serif" font-size="14.00">&#45; &#160;&#160;pixels: List&lt;Pixel&gt; [0..*]</text>
<text text-anchor="start" x="995" y="-176.4" font-family="Times New Roman,serif" font-size="14.00">&#45; &#160;&#160;type: int [1]</text>
<text text-anchor="start" x="995" y="-152.4" font-family="Times New Roman,serif" font-size="14.00">&#45; &#160;&#160;width: int [1]</text>
<text text-anchor="start" x="995" y="-128.4" font-family="Times New Roman,serif" font-size="14.00">+ getHeight(): int</text>
<text text-anchor="start" x="995" y="-104.4" font-family="Times New Roman,serif" font-size="14.00">+ getPixels(): List&lt;Pixel&gt;</text>
<text text-anchor="start" x="995" y="-80.4" font-family="Times New Roman,serif" font-size="14.00">+ getType(): int</text>
<text text-anchor="start" x="995" y="-56.4" font-family="Times New Roman,serif" font-size="14.00">+ getWidth(): int</text>
<text text-anchor="start" x="995" y="-32.4" font-family="Times New Roman,serif" font-size="14.00">+ hashCode(): int</text>
<polygon fill="black" stroke="black" points="990,-241 990,-241 1156,-241 1156,-241 990,-241"/>
<polygon fill="black" stroke="black" points="990,-145 990,-145 1156,-145 1156,-145 990,-145"/>
<polygon fill="none" stroke="black" points="990,-24 990,-266 1156,-266 1156,-24 990,-24"/>
</g>
<!-- ConcurrentConverter604903011&#45;&gt;Photo177902411 -->
<g id="edge4" class="edge">
<title>ConcurrentConverter604903011&#45;&gt;Photo177902411</title>
<path fill="none" stroke="black" d="M764.23,-341.91C770.33,-337.97 774,-335.6 774,-335.6 774,-335.6 981,-266 981,-266 981,-266 981.95,-264.76 983.66,-262.53"/>
<polygon fill="black" stroke="black" points="986.51,-264.56 989.82,-254.49 980.96,-260.3 986.51,-264.56"/>
<text text-anchor="middle" x="956.88" y="-305" font-family="Times New Roman,serif" font-size="14.00">inputImage</text>
<text text-anchor="middle" x="956.88" y="-288.2" font-family="Times New Roman,serif" font-size="14.00">[0..1]</text>
</g>
<!-- SepiaConverter1402912574 -->
<g id="node15" class="node">
<title>SepiaConverter1402912574</title>
<polygon fill="#ffffff" stroke="transparent" points="1478,-170 1174,-170 1174,-120 1478,-120 1478,-170"/>
<text text-anchor="start" x="1179" y="-152.4" font-family="Times New Roman,serif" font-size="14.00">(C)SepiaConverter</text>
<text text-anchor="start" x="1178.58" y="-128.4" font-family="Times New Roman,serif" font-size="14.00">+ convert(image: Photo, imageName: String): String</text>
<polygon fill="black" stroke="black" points="1174,-145 1174,-145 1478,-145 1478,-145 1174,-145"/>
<polygon fill="none" stroke="black" points="1174,-120 1174,-170 1478,-170 1478,-120 1174,-120"/>
</g>
<!-- ConcurrentConverter604903011&#45;&gt;SepiaConverter1402912574 -->
<g id="edge5" class="edge">
<title>ConcurrentConverter604903011&#45;&gt;SepiaConverter1402912574</title>
<path fill="none" stroke="black" d="M764.23,-341.91C770.33,-337.97 774,-335.6 774,-335.6 774,-335.6 993,-317.6 993,-317.6 993,-317.6 1165,-266 1165,-266 1165,-266 1246.37,-205.35 1293.42,-170.28"/>
</g>
<!-- ConversionType177902411 -->
<g id="node3" class="node">
<title>ConversionType177902411</title>
<polygon fill="#dcfbd5" stroke="transparent" points="1744,-242 1496,-242 1496,-48 1744,-48 1744,-242"/>
<text text-anchor="start" x="1501" y="-224.4" font-family="Times New Roman,serif" font-size="14.00">(E)ConversionType</text>
<text text-anchor="start" x="1501" y="-200.4" font-family="Times New Roman,serif" font-size="14.00">+ &#160;&#160;CLARENDON: ConversionType [1]</text>
<text text-anchor="start" x="1501" y="-176.4" font-family="Times New Roman,serif" font-size="14.00">+ &#160;&#160;GREYSCALE: ConversionType [1]</text>
<text text-anchor="start" x="1501" y="-152.4" font-family="Times New Roman,serif" font-size="14.00">+ &#160;&#160;INVERSION: ConversionType [1]</text>
<text text-anchor="start" x="1501" y="-128.4" font-family="Times New Roman,serif" font-size="14.00">+ &#160;&#160;SEPIA: ConversionType [1]</text>
<text text-anchor="start" x="1501" y="-104.4" font-family="Times New Roman,serif" font-size="14.00">&#45; &#160;&#160;name: String [0..1]</text>
<text text-anchor="start" x="1500.78" y="-80.4" font-family="Times New Roman,serif" font-size="14.00">+ valueOf(name: String): ConversionType</text>
<text text-anchor="start" x="1501" y="-56.4" font-family="Times New Roman,serif" font-size="14.00">+ values(): ConversionType[]</text>
<polygon fill="black" stroke="black" points="1496,-217 1496,-217 1744,-217 1744,-217 1496,-217"/>
<polygon fill="black" stroke="black" points="1496,-97 1496,-97 1744,-97 1744,-97 1496,-97"/>
<polygon fill="none" stroke="black" points="1496,-48 1496,-242 1744,-242 1744,-48 1496,-48"/>
</g>
<!-- ConvertPhotoActivity1135751251 -->
<g id="node4" class="node">
<title>ConvertPhotoActivity1135751251</title>
<polygon fill="#ffffff" stroke="transparent" points="1251,-769.2 733,-769.2 733,-575.2 1251,-575.2 1251,-769.2"/>
<text text-anchor="start" x="738" y="-751.6" font-family="Times New Roman,serif" font-size="14.00">(C)ConvertPhotoActivity</text>
<text text-anchor="start" x="738" y="-727.6" font-family="Times New Roman,serif" font-size="14.00">&#45; &#160;&#160;conversionResults: Map&lt;ConcurrentConverter, Future&lt;Void&gt;&gt; [0..*]</text>
<text text-anchor="start" x="738" y="-703.6" font-family="Times New Roman,serif" font-size="14.00">&#45; &#160;&#160;converterMapper: ConverterStrategyMapper [0..1]</text>
<text text-anchor="start" x="738" y="-679.6" font-family="Times New Roman,serif" font-size="14.00">&#45; &#160;&#160;executorService: ExecutorService [0..1]</text>
<text text-anchor="start" x="738" y="-655.6" font-family="Times New Roman,serif" font-size="14.00">&#45; gatherResults(): List&lt;String&gt;</text>
<text text-anchor="start" x="737.81" y="-631.6" font-family="Times New Roman,serif" font-size="14.00">+ handleRequest(filePath: String, conversionTypes: List&lt;ConversionType&gt;): List&lt;String&gt;</text>
<text text-anchor="start" x="738" y="-607.6" font-family="Times New Roman,serif" font-size="14.00">&#45; shutDownExecutorService()</text>
<text text-anchor="start" x="738" y="-583.6" font-family="Times New Roman,serif" font-size="14.00">&#45; submitConcurrentConverter(concurrentConverter: ConcurrentConverter)</text>
<polygon fill="black" stroke="black" points="733,-744.2 733,-744.2 1251,-744.2 1251,-744.2 733,-744.2"/>
<polygon fill="black" stroke="black" points="733,-672.2 733,-672.2 1251,-672.2 1251,-672.2 733,-672.2"/>
<polygon fill="none" stroke="black" points="733,-575.2 733,-769.2 1251,-769.2 1251,-575.2 733,-575.2"/>
</g>
<!-- ConvertPhotoActivity1135751251&#45;&gt;ConcurrentConverter604903011 -->
<g id="edge6" class="edge">
<title>ConvertPhotoActivity1135751251&#45;&gt;ConcurrentConverter604903011</title>
<path fill="none" stroke="black" d="M857.95,-575.06C828.94,-554.24 798.35,-532.31 769.67,-511.74"/>
<polygon fill="black" stroke="black" points="771.41,-508.67 761.24,-505.69 767.33,-514.36 771.41,-508.67"/>
<text text-anchor="middle" x="879.32" y="-544.6" font-family="Times New Roman,serif" font-size="14.00">conversionResults</text>
<text text-anchor="middle" x="879.32" y="-527.8" font-family="Times New Roman,serif" font-size="14.00">[0..*]</text>
</g>
<!-- ConverterStrategyMapper1402912574 -->
<g id="node5" class="node">
<title>ConverterStrategyMapper1402912574</title>
<polygon fill="#ffffff" stroke="transparent" points="1207.5,-469.6 782.5,-469.6 782.5,-371.6 1207.5,-371.6 1207.5,-469.6"/>
<text text-anchor="start" x="788" y="-452" font-family="Times New Roman,serif" font-size="14.00">(C)ConverterStrategyMapper</text>
<text text-anchor="start" x="788" y="-428" font-family="Times New Roman,serif" font-size="14.00">&#45; &#160;&#160;converterMap: Map&lt;ConversionType, PhotoConverter&gt; [0..*]</text>
<text text-anchor="start" x="787.64" y="-404" font-family="Times New Roman,serif" font-size="14.00">+ getImageConverter(conversionType: ConversionType): PhotoConverter</text>
<text text-anchor="start" x="788" y="-380" font-family="Times New Roman,serif" font-size="14.00">+ getImageConverters(): Set&lt;Entry&lt;ConversionType, PhotoConverter&gt;&gt;</text>
<polygon fill="black" stroke="black" points="783,-444.6 783,-444.6 1208,-444.6 1208,-444.6 783,-444.6"/>
<polygon fill="black" stroke="black" points="783,-420.6 783,-420.6 1208,-420.6 1208,-420.6 783,-420.6"/>
<polygon fill="none" stroke="black" points="782.5,-371.6 782.5,-469.6 1207.5,-469.6 1207.5,-371.6 782.5,-371.6"/>
</g>
<!-- ConvertPhotoActivity1135751251&#45;&gt;ConverterStrategyMapper1402912574 -->
<g id="edge7" class="edge">
<title>ConvertPhotoActivity1135751251&#45;&gt;ConverterStrategyMapper1402912574</title>
<path fill="none" stroke="black" d="M993.16,-575.06C993.54,-543.01 993.96,-508.3 994.3,-480.01"/>
<polygon fill="black" stroke="black" points="997.8,-479.94 994.42,-469.9 990.8,-479.85 997.8,-479.94"/>
<text text-anchor="middle" x="1041.2" y="-544.6" font-family="Times New Roman,serif" font-size="14.00">converterMapper</text>
<text text-anchor="middle" x="1041.2" y="-527.8" font-family="Times New Roman,serif" font-size="14.00">[0..1]</text>
</g>
<!-- PhotoUtil1114360736 -->
<g id="node12" class="node">
<title>PhotoUtil1114360736</title>
<polygon fill="#ffffff" stroke="transparent" points="1744,-481.6 1226,-481.6 1226,-359.6 1744,-359.6 1744,-481.6"/>
<text text-anchor="start" x="1231" y="-464" font-family="Times New Roman,serif" font-size="14.00">(C)PhotoUtil</text>
<text text-anchor="start" x="1231" y="-440" font-family="Times New Roman,serif" font-size="14.00">&#45; createRGB(bufferedImageRGBValue: int): RGB</text>
<text text-anchor="start" x="1231" y="-416" font-family="Times New Roman,serif" font-size="14.00">+ fromFile(filePath: String): Photo</text>
<text text-anchor="start" x="1231" y="-392" font-family="Times New Roman,serif" font-size="14.00">&#45; getRGBIntValue(rgb: RGB): int</text>
<text text-anchor="start" x="1230.85" y="-368" font-family="Times New Roman,serif" font-size="14.00">+ savePhoto(image: Photo, imageName: String, conversionType: ConversionType): String</text>
<polygon fill="black" stroke="black" points="1226,-456.6 1226,-456.6 1744,-456.6 1744,-456.6 1226,-456.6"/>
<polygon fill="none" stroke="black" points="1226,-359.6 1226,-481.6 1744,-481.6 1744,-359.6 1226,-359.6"/>
</g>
<!-- ConvertPhotoActivity1135751251&#45;&gt;PhotoUtil1114360736 -->
<g id="edge8" class="edge">
<title>ConvertPhotoActivity1135751251&#45;&gt;PhotoUtil1114360736</title>
<path fill="none" stroke="black" d="M1181.9,-575.06C1240.49,-545.39 1303.59,-513.44 1356.97,-486.42"/>
<polygon fill="black" stroke="black" points="1358.79,-489.42 1366.13,-481.78 1355.63,-483.17 1358.79,-489.42"/>
<text text-anchor="middle" x="1366.8" y="-536.2" font-family="Times New Roman,serif" font-size="14.00">handleRequest() &#45;&gt; fromFile()</text>
</g>
<!-- ConverterStrategyMapper1402912574&#45;&gt;ConversionType177902411 -->
<g id="edge9" class="edge">
<title>ConverterStrategyMapper1402912574&#45;&gt;ConversionType177902411</title>
<path fill="none" stroke="black" d="M1121.89,-371.59C1171.61,-352.77 1217,-335.6 1217,-335.6 1217,-335.6 1487,-266 1487,-266 1487,-266 1494.52,-259.22 1505.98,-248.87"/>
<polygon fill="black" stroke="black" points="1508.51,-251.3 1513.59,-242 1503.83,-246.1 1508.51,-251.3"/>
<text text-anchor="middle" x="1453.26" y="-305" font-family="Times New Roman,serif" font-size="14.00">converterMap</text>
<text text-anchor="middle" x="1453.26" y="-288.2" font-family="Times New Roman,serif" font-size="14.00">[0..*]</text>
</g>
<!-- DraggableZoomablePanel393580992 -->
<g id="node6" class="node">
<title>DraggableZoomablePanel393580992</title>
<polygon fill="#ffffff" stroke="transparent" points="1476.5,-757.2 1269.5,-757.2 1269.5,-587.2 1476.5,-587.2 1476.5,-757.2"/>
<text text-anchor="start" x="1275" y="-739.6" font-family="Times New Roman,serif" font-size="14.00">(C)DraggableZoomablePanel</text>
<text text-anchor="start" x="1275" y="-715.6" font-family="Times New Roman,serif" font-size="14.00">&#45; &#160;&#160;image: BufferedImage [0..1]</text>
<text text-anchor="start" x="1275" y="-691.6" font-family="Times New Roman,serif" font-size="14.00">&#45; &#160;&#160;imageCorner: Point [0..1]</text>
<text text-anchor="start" x="1275" y="-667.6" font-family="Times New Roman,serif" font-size="14.00">&#45; &#160;&#160;prevPt: Point [0..1]</text>
<text text-anchor="start" x="1275" y="-643.6" font-family="Times New Roman,serif" font-size="14.00">&#45; &#160;&#160;zoomFactor: double [1]</text>
<text text-anchor="start" x="1275" y="-619.6" font-family="Times New Roman,serif" font-size="14.00"># paintComponent(g: Graphics)</text>
<text text-anchor="start" x="1274.71" y="-595.6" font-family="Times New Roman,serif" font-size="14.00">+ setImage(image: BufferedImage)</text>
<polygon fill="black" stroke="black" points="1270,-732.2 1270,-732.2 1477,-732.2 1477,-732.2 1270,-732.2"/>
<polygon fill="black" stroke="black" points="1270,-636.2 1270,-636.2 1477,-636.2 1477,-636.2 1270,-636.2"/>
<polygon fill="none" stroke="black" points="1269.5,-587.2 1269.5,-757.2 1476.5,-757.2 1476.5,-587.2 1269.5,-587.2"/>
</g>
<!-- FileUtil1114360736 -->
<g id="node7" class="node">
<title>FileUtil1114360736</title>
<polygon fill="#ffffff" stroke="transparent" points="1743.5,-1104.8 1418.5,-1104.8 1418.5,-1006.8 1743.5,-1006.8 1743.5,-1104.8"/>
<text text-anchor="start" x="1424" y="-1087.2" font-family="Times New Roman,serif" font-size="14.00">(C)FileUtil</text>
<text text-anchor="start" x="1424" y="-1063.2" font-family="Times New Roman,serif" font-size="14.00">+ copyFile(source: File, dest: File)</text>
<text text-anchor="start" x="1424" y="-1039.2" font-family="Times New Roman,serif" font-size="14.00">+ loadImage(file: File): BufferedImage</text>
<text text-anchor="start" x="1423.8" y="-1015.2" font-family="Times New Roman,serif" font-size="14.00">+ loadImageFromUrl(imageUrl: String): BufferedImage</text>
<polygon fill="black" stroke="black" points="1419,-1079.8 1419,-1079.8 1744,-1079.8 1744,-1079.8 1419,-1079.8"/>
<polygon fill="none" stroke="black" points="1418.5,-1006.8 1418.5,-1104.8 1743.5,-1104.8 1743.5,-1006.8 1418.5,-1006.8"/>
</g>
<!-- MainPanel1114379843 -->
<g id="node10" class="node">
<title>MainPanel1114379843</title>
<polygon fill="#ffffff" stroke="transparent" points="1400,-1272.8 1078,-1272.8 1078,-838.8 1400,-838.8 1400,-1272.8"/>
<text text-anchor="start" x="1083" y="-1255.2" font-family="Times New Roman,serif" font-size="14.00">(C)MainPanel</text>
<text text-anchor="start" x="1083" y="-1231.2" font-family="Times New Roman,serif" font-size="14.00">&#45; &#160;&#160;applyGreyscaleButton: JButton [0..1]</text>
<text text-anchor="start" x="1083" y="-1207.2" font-family="Times New Roman,serif" font-size="14.00">&#45; &#160;&#160;applyInversionButton: JButton [0..1]</text>
<text text-anchor="start" x="1083" y="-1183.2" font-family="Times New Roman,serif" font-size="14.00">&#45; &#160;&#160;applySepiaButton: JButton [0..1]</text>
<text text-anchor="start" x="1083" y="-1159.2" font-family="Times New Roman,serif" font-size="14.00">&#45; &#160;&#160;clarendonButton: JButton [0..1]</text>
<text text-anchor="start" x="1083" y="-1135.2" font-family="Times New Roman,serif" font-size="14.00">&#45; &#160;&#160;filePathLabel: JLabel [0..1]</text>
<text text-anchor="start" x="1083" y="-1111.2" font-family="Times New Roman,serif" font-size="14.00">&#45; &#160;&#160;filteredImage: BufferedImage [0..1]</text>
<text text-anchor="start" x="1083" y="-1087.2" font-family="Times New Roman,serif" font-size="14.00">&#45; &#160;&#160;filteredImagePanel: DraggableZoomablePanel [0..1]</text>
<text text-anchor="start" x="1083" y="-1063.2" font-family="Times New Roman,serif" font-size="14.00">&#45; &#160;&#160;filteredImagePaths: List&lt;String&gt; [0..*]</text>
<text text-anchor="start" x="1083" y="-1039.2" font-family="Times New Roman,serif" font-size="14.00">&#45; &#160;&#160;openButton: JButton [0..1]</text>
<text text-anchor="start" x="1083" y="-1015.2" font-family="Times New Roman,serif" font-size="14.00">&#45; &#160;&#160;openUrlButton: JButton [0..1]</text>
<text text-anchor="start" x="1083" y="-991.2" font-family="Times New Roman,serif" font-size="14.00">&#45; &#160;&#160;originalImage: BufferedImage [0..1]</text>
<text text-anchor="start" x="1082.92" y="-967.2" font-family="Times New Roman,serif" font-size="14.00">&#45; &#160;&#160;originalImagePanel: DraggableZoomablePanel [0..1]</text>
<text text-anchor="start" x="1083" y="-943.2" font-family="Times New Roman,serif" font-size="14.00">&#45; &#160;&#160;saveButton: JButton [0..1]</text>
<text text-anchor="start" x="1083" y="-919.2" font-family="Times New Roman,serif" font-size="14.00">&#45; &#160;&#160;selectedFile: File [0..1]</text>
<text text-anchor="start" x="1083" y="-895.2" font-family="Times New Roman,serif" font-size="14.00">&#45; applyFilter(conversionType: ConversionType)</text>
<text text-anchor="start" x="1083" y="-871.2" font-family="Times New Roman,serif" font-size="14.00">&#45; chooseFile()</text>
<text text-anchor="start" x="1083" y="-847.2" font-family="Times New Roman,serif" font-size="14.00">&#45; saveFilteredImages()</text>
<polygon fill="black" stroke="black" points="1078,-1247.8 1078,-1247.8 1400,-1247.8 1400,-1247.8 1078,-1247.8"/>
<polygon fill="black" stroke="black" points="1078,-911.8 1078,-911.8 1400,-911.8 1400,-911.8 1078,-911.8"/>
<polygon fill="none" stroke="black" points="1078,-838.8 1078,-1272.8 1400,-1272.8 1400,-838.8 1078,-838.8"/>
</g>
<!-- MainPanel1114379843&#45;&gt;ConvertPhotoActivity1135751251 -->
<g id="edge10" class="edge">
<title>MainPanel1114379843&#45;&gt;ConvertPhotoActivity1135751251</title>
<path fill="none" stroke="black" d="M1077.66,-848.56C1064.4,-831.6 1055.95,-820.8 1055.95,-820.8 1055.95,-820.8 1048.04,-802.56 1037.79,-778.9"/>
<polygon fill="black" stroke="black" points="1040.95,-777.38 1033.76,-769.59 1034.52,-780.16 1040.95,-777.38"/>
<text text-anchor="middle" x="1146.03" y="-799.8" font-family="Times New Roman,serif" font-size="14.00">applyFilter() &#45;&gt; handleRequest()</text>
</g>
<!-- MainPanel1114379843&#45;&gt;DraggableZoomablePanel393580992 -->
<g id="edge11" class="edge">
<title>MainPanel1114379843&#45;&gt;DraggableZoomablePanel393580992</title>
<path fill="none" stroke="black" d="M1242.63,-838.8C1243.14,-808.37 1243.49,-787.2 1243.49,-787.2 1243.49,-787.2 1254.29,-777.7 1269.64,-764.18"/>
<polygon fill="black" stroke="black" points="1272.33,-766.48 1277.52,-757.25 1267.7,-761.23 1272.33,-766.48"/>
<text text-anchor="middle" x="1296.25" y="-808.2" font-family="Times New Roman,serif" font-size="14.00">filteredImagePanel</text>
<text text-anchor="middle" x="1296.25" y="-791.4" font-family="Times New Roman,serif" font-size="14.00">[0..1]</text>
</g>
<!-- MainPanel1114379843&#45;&gt;DraggableZoomablePanel393580992 -->
<g id="edge12" class="edge">
<title>MainPanel1114379843&#45;&gt;DraggableZoomablePanel393580992</title>
<path fill="none" stroke="black" d="M1341.47,-838.77C1346.8,-827.56 1350,-820.8 1350,-820.8 1350,-820.8 1353.81,-796.34 1358.33,-767.33"/>
<polygon fill="black" stroke="black" points="1361.81,-767.77 1359.89,-757.35 1354.89,-766.69 1361.81,-767.77"/>
<text text-anchor="middle" x="1408.81" y="-808.2" font-family="Times New Roman,serif" font-size="14.00">originalImagePanel</text>
<text text-anchor="middle" x="1408.81" y="-791.4" font-family="Times New Roman,serif" font-size="14.00">[0..1]</text>
</g>
<!-- Pixel177902411 -->
<g id="node13" class="node">
<title>Pixel177902411</title>
<polygon fill="#ffffff" stroke="transparent" points="912.5,-1152.8 799.5,-1152.8 799.5,-958.8 912.5,-958.8 912.5,-1152.8"/>
<text text-anchor="start" x="805" y="-1135.2" font-family="Times New Roman,serif" font-size="14.00">(C)Pixel</text>
<text text-anchor="start" x="804.59" y="-1111.2" font-family="Times New Roman,serif" font-size="14.00">&#45; &#160;&#160;rgb: RGB [0..1]</text>
<text text-anchor="start" x="805" y="-1087.2" font-family="Times New Roman,serif" font-size="14.00">&#45; &#160;&#160;x: int [1]</text>
<text text-anchor="start" x="805" y="-1063.2" font-family="Times New Roman,serif" font-size="14.00">&#45; &#160;&#160;y: int [1]</text>
<text text-anchor="start" x="805" y="-1039.2" font-family="Times New Roman,serif" font-size="14.00">+ getRGB(): RGB</text>
<text text-anchor="start" x="805" y="-1015.2" font-family="Times New Roman,serif" font-size="14.00">+ getX(): int</text>
<text text-anchor="start" x="805" y="-991.2" font-family="Times New Roman,serif" font-size="14.00">+ getY(): int</text>
<text text-anchor="start" x="805" y="-967.2" font-family="Times New Roman,serif" font-size="14.00">+ hashCode(): int</text>
<polygon fill="black" stroke="black" points="800,-1127.8 800,-1127.8 913,-1127.8 913,-1127.8 800,-1127.8"/>
<polygon fill="black" stroke="black" points="800,-1055.8 800,-1055.8 913,-1055.8 913,-1055.8 800,-1055.8"/>
<polygon fill="none" stroke="black" points="799.5,-958.8 799.5,-1152.8 912.5,-1152.8 912.5,-958.8 799.5,-958.8"/>
</g>
<!-- RGB177902411 -->
<g id="node14" class="node">
<title>RGB177902411</title>
<polygon fill="#ffffff" stroke="transparent" points="486,-1224.8 172,-1224.8 172,-886.8 486,-886.8 486,-1224.8"/>
<text text-anchor="start" x="177" y="-1207.2" font-family="Times New Roman,serif" font-size="14.00">(C)RGB</text>
<text text-anchor="start" x="177" y="-1183.2" font-family="Times New Roman,serif" font-size="14.00">&#45; &#160;&#160;blue: int [1]</text>
<text text-anchor="start" x="177" y="-1159.2" font-family="Times New Roman,serif" font-size="14.00">&#45; &#160;&#160;green: int [1]</text>
<text text-anchor="start" x="177" y="-1135.2" font-family="Times New Roman,serif" font-size="14.00">&#45; &#160;&#160;red: int [1]</text>
<text text-anchor="start" x="177" y="-1111.2" font-family="Times New Roman,serif" font-size="14.00">&#45; &#160;&#160;transparency: int [1]</text>
<text text-anchor="start" x="176.8" y="-1087.2" font-family="Times New Roman,serif" font-size="14.00">&#45; check(red: int, green: int, blue: int, transparency: int)</text>
<text text-anchor="start" x="177" y="-1063.2" font-family="Times New Roman,serif" font-size="14.00">+ getBlue(): int</text>
<text text-anchor="start" x="177" y="-1039.2" font-family="Times New Roman,serif" font-size="14.00">+ getGreen(): int</text>
<text text-anchor="start" x="177" y="-1015.2" font-family="Times New Roman,serif" font-size="14.00">+ getRed(): int</text>
<text text-anchor="start" x="177" y="-991.2" font-family="Times New Roman,serif" font-size="14.00">+ getTransparency(): int</text>
<text text-anchor="start" x="177" y="-967.2" font-family="Times New Roman,serif" font-size="14.00">+ hashCode(): int</text>
<text text-anchor="start" x="177" y="-943.2" font-family="Times New Roman,serif" font-size="14.00">+ invert(): RGB</text>
<text text-anchor="start" x="177" y="-919.2" font-family="Times New Roman,serif" font-size="14.00">+ toGreyScale(): RGB</text>
<text text-anchor="start" x="177" y="-895.2" font-family="Times New Roman,serif" font-size="14.00">+ toSepia(): RGB</text>
<polygon fill="black" stroke="black" points="172,-1199.8 172,-1199.8 486,-1199.8 486,-1199.8 172,-1199.8"/>
<polygon fill="black" stroke="black" points="172,-1103.8 172,-1103.8 486,-1103.8 486,-1103.8 172,-1103.8"/>
<polygon fill="none" stroke="black" points="172,-886.8 172,-1224.8 486,-1224.8 486,-886.8 172,-886.8"/>
</g>
</g>
</svg>
